<svg width="505" height="353" viewBox="0 0 505 353" fill="none" xmlns="http://www.w3.org/2000/svg">
<g clip-path="url(#clip0_689_534)">
<path d="M80.4194 316.675L264.938 333.02C308.878 336.912 335.429 315.047 339.138 273.176L354.884 95.4218C358.593 53.5494 337.349 27.4519 293.528 23.5703L107.84 7.12195C64.9526 3.32299 37.3492 25.0935 33.6298 67.0825L17.6158 247.868C13.9066 289.742 36.4807 312.783 80.4194 316.675ZM372.133 254.351L423.735 307.353C432.702 316.494 441.681 322.815 451.264 323.664C467.739 325.123 480.438 314.726 482.019 296.882L499.479 99.7665C501.06 81.9211 490.386 69.4555 473.911 67.9961C464.211 67.1369 454.495 71.8011 443.944 79.2127L383.829 122.319L372.133 254.351Z" fill="black"/>
</g>
<defs>
<clipPath id="clip0_689_534">
<rect width="479" height="311" fill="white" transform="translate(27.4414) rotate(5.06207)"/>
</clipPath>
</defs>
</svg>
