<svg width="248" height="235" viewBox="0 0 248 235" fill="none" xmlns="http://www.w3.org/2000/svg">
<path d="M2.00239 37.9847L17.3288 65.584C21.7194 73.4905 31.8392 76.3037 40.2497 72.9789C68.2135 61.9243 127.757 49.4225 149.95 130.339C152.261 138.765 146.633 147.201 138.076 148.965L132.353 150.145C119.438 152.807 115.107 169.072 124.988 177.804L184.889 230.741C192.791 237.724 205.17 235.287 209.834 225.829L246.024 152.452C251.995 140.346 241.214 126.741 228.063 129.788L224.728 130.56C215.143 132.781 205.885 125.891 204.243 116.19C191.696 42.0434 133.974 -33.9638 9.4617 16.1107C0.853549 19.5726 -2.50202 29.8733 2.00239 37.9847Z" fill="black"/>
</svg>
