<svg width="250" height="230" viewBox="0 0 250 230" fill="none" xmlns="http://www.w3.org/2000/svg">
<path d="M27.681 1.05688L57.1583 12.3577C65.6028 15.5951 69.8085 25.2199 67.6971 34.0138C60.6769 63.2524 56.6563 123.961 139.887 134.577C148.553 135.682 156.116 128.926 156.662 120.206L157.027 114.374C157.85 101.213 173.346 94.6422 183.379 103.2L244.199 155.078C252.222 161.922 251.546 174.52 242.837 180.466L175.266 226.596C164.117 234.207 149.134 225.443 150.305 211.995L150.602 208.584C151.455 198.782 143.334 190.583 133.498 190.319C58.3246 188.303 -25.0319 141.821 7.07054 11.5125C9.28993 2.5037 19.0176 -2.26444 27.681 1.05688Z" fill="black"/>
</svg>
