<svg width="478" height="477" viewBox="0 0 478 477" fill="none" xmlns="http://www.w3.org/2000/svg">
<g clip-path="url(#clip0_689_512)">
<path d="M270.565 148.33V71.3439C270.565 55.9991 257.713 45.3758 242.631 48.6546L135.086 72.1306C118.036 75.8029 108.856 85.3771 108.856 100.328V327.221C109.512 334.304 106.626 338.107 100.856 339.286L67.4121 346.238C22.5581 355.55 0 379.42 0 415.225C0 451.684 27.4108 476.734 66.6251 476.734C107.676 476.734 150.431 445.388 150.431 388.338V198.692C150.431 192.659 151.742 191.085 156.989 190.036L254.041 168.658C264.008 166.56 270.565 158.56 270.565 148.33Z" fill="black"/>
</g>
<g clip-path="url(#clip1_689_512)">
<path d="M347.851 48.3594C347.851 36.9302 337.338 28.395 326.152 30.7435L306.276 34.917V284.242C306.932 291.325 304.046 295.129 298.275 296.308L264.832 303.259C219.978 312.571 197.42 336.44 197.42 372.244C197.42 408.704 224.831 433.753 264.045 433.753C305.095 433.753 347.851 402.41 347.851 345.359V155.713V48.3594Z" fill="black"/>
<path d="M335.077 151.085L171.903 186.675L165.188 65.1338L318.961 32.2305L335.077 151.085Z" fill="black"/>
</g>
<defs>
<clipPath id="clip0_689_512">
<rect width="280.272" height="436.473" fill="white" transform="translate(0 40.293)"/>
</clipPath>
<clipPath id="clip1_689_512">
<rect width="280.272" height="436.473" fill="white" transform="translate(197.42)"/>
</clipPath>
</defs>
</svg>
