<svg width="1024" height="1024" viewBox="0 0 1024 1024" fill="none" xmlns="http://www.w3.org/2000/svg">
<g clip-path="url(#clip0_689_511)">
<path d="M792.565 584.33V507.344C792.565 491.999 779.713 481.376 764.631 484.655L657.086 508.131C640.036 511.803 630.856 521.377 630.856 536.328V763.221C631.512 770.304 628.626 774.107 622.856 775.286L589.412 782.238C544.558 791.55 522 815.42 522 851.225C522 887.684 549.411 912.734 588.625 912.734C629.676 912.734 672.431 881.388 672.431 824.338V634.692C672.431 628.659 673.742 627.085 678.989 626.036L776.041 604.658C786.008 602.56 792.565 594.56 792.565 584.33Z" fill="white"/>
</g>
<g clip-path="url(#clip1_689_511)">
<path d="M869.851 484.359C869.851 472.93 859.338 464.395 848.152 466.744L828.276 470.917V720.242C828.932 727.325 826.046 731.129 820.275 732.308L786.832 739.259C741.978 748.571 719.42 772.44 719.42 808.244C719.42 844.704 746.831 869.753 786.045 869.753C827.095 869.753 869.851 838.41 869.851 781.359V591.713V484.359Z" fill="white"/>
<path d="M857.077 587.085L693.903 622.675L687.188 501.134L840.961 468.23L857.077 587.085Z" fill="white"/>
</g>
<g clip-path="url(#clip2_689_511)">
<path d="M157.419 470.675L341.938 487.02C385.878 490.912 412.429 469.047 416.138 427.176L431.884 249.422C435.593 207.549 414.349 181.452 370.528 177.57L184.84 161.122C141.953 157.323 114.349 179.093 110.63 221.082L94.6158 401.868C90.9066 443.742 113.481 466.783 157.419 470.675ZM449.133 408.351L500.735 461.353C509.702 470.494 518.681 476.815 528.264 477.664C544.739 479.123 557.438 468.726 559.019 450.882L576.479 253.766C578.06 235.921 567.386 223.455 550.911 221.996C541.211 221.137 531.495 225.801 520.944 233.213L460.829 276.319L449.133 408.351Z" fill="white"/>
</g>
<path d="M635.715 207.91L651.042 235.51C655.432 243.416 665.552 246.229 673.963 242.905C701.926 231.85 761.47 219.348 783.663 300.265C785.974 308.69 780.346 317.127 771.789 318.891L766.066 320.071C753.15 322.733 748.82 338.998 758.701 347.73L818.602 400.667C826.504 407.65 838.882 405.213 843.547 395.755L879.737 322.378C885.708 310.272 874.927 296.667 861.776 299.714L858.441 300.486C848.855 302.707 839.598 295.817 837.956 286.115C825.409 211.969 767.687 135.962 643.175 186.037C634.566 189.498 631.211 199.799 635.715 207.91Z" fill="white"/>
<path d="M299.722 545.377L329.199 556.678C337.644 559.915 341.85 569.54 339.738 578.334C332.718 607.573 328.697 668.281 411.928 678.897C420.594 680.003 428.157 673.247 428.703 664.527L429.068 658.694C429.891 645.534 445.387 638.962 455.42 647.52L516.24 699.398C524.263 706.242 523.587 718.84 514.878 724.786L447.307 770.916C436.158 778.527 421.175 769.763 422.346 756.315L422.643 752.905C423.496 743.102 415.375 734.903 405.539 734.639C330.366 732.623 247.009 686.141 279.112 555.833C281.331 546.824 291.059 542.056 299.722 545.377Z" fill="white"/>
<defs>
<clipPath id="clip0_689_511">
<rect width="280.272" height="436.473" fill="white" transform="translate(522 476.293)"/>
</clipPath>
<clipPath id="clip1_689_511">
<rect width="280.272" height="436.473" fill="white" transform="translate(719.42 436)"/>
</clipPath>
<clipPath id="clip2_689_511">
<rect width="479" height="311" fill="white" transform="translate(104.441 154) rotate(5.06207)"/>
</clipPath>
</defs>
</svg>
